<svg width="559" height="897" viewBox="0 0 559 897" fill="none" xmlns="http://www.w3.org/2000/svg">
<path fill-rule="evenodd" clip-rule="evenodd" d="M112.957 804.242L112.951 804.237C66.8944 765.852 43.9149 712.135 43.9149 643.342V254.655C43.9149 172.649 64.8302 108.56 104.931 64.6916L104.937 64.6848C145.499 20.747 210.103 0 300.279 0C349.55 0 393.37 7.36492 431.711 22.1362C470.473 36.9181 501.017 59.127 523.253 88.8022C545.553 118.243 556.643 155.385 556.643 200.086V347L473.5 346.401C465.757 346.401 457.338 345.755 450 344.301C434.522 341.234 416.172 333.6 403.5 325C370.373 302.516 348.764 265.775 348.764 221.147C348.764 208.633 347.938 199.5 345.5 189C343.41 180 340.112 174.705 336.485 170.727L336.473 170.714L336.462 170.702C329.078 162.303 316.485 155.917 300.279 155.917C281.329 155.917 268.156 161.563 261.956 172.23L261.95 172.24L261.944 172.25C259.01 177.158 256.726 182.865 255.11 189.387C254.954 190.018 254.804 190.657 254.66 191.303C253.031 198.625 251.205 209.928 251.205 219.233V640.949C251.205 664.101 255.322 680.923 263.095 689.957C271.308 699.046 285.947 705.7 301.279 705.7C318.556 705.7 331.218 697.958 337.848 686.887L337.86 686.867L337.872 686.847C345.082 675.441 348.764 659.523 348.764 640.949C348.764 603.363 362.675 571.126 384.114 544.644C385.194 543.309 384.377 544.041 385.5 542.746C412.41 511.729 450.35 490 493.766 490L559 489.5V648.607C559 723.083 535.858 777.531 489.281 811.491L489.274 811.496C442.897 844.987 378.257 861.617 295.565 861.617C220.246 861.617 159.319 842.552 112.957 804.242ZM261.749 691.252C253.5 681.679 249.375 664.244 249.375 640.949V219.233C249.375 210.001 251.178 199.69 252.783 192.3C252.915 191.694 253.052 191.094 253.194 190.5C254.858 183.568 257.257 176.481 260.392 171.237C267.069 159.749 281.032 154.004 300.279 154.004C316.777 154.004 329.953 160.472 337.809 169.407C345.665 178.024 350.593 195.937 350.593 221.147C350.593 289.883 407.74 344.301 473.5 344.301L554.813 345V200.086C554.813 155.728 543.815 119.029 521.818 89.9894C499.821 60.6305 469.576 38.6113 431.081 23.9318C392.98 9.25232 349.379 1.91258 300.279 1.91258C210.328 1.91258 146.319 22.6127 106.254 66.0129C66.5811 109.413 45.7447 172.96 45.7447 254.655V643.342C45.7447 711.633 68.5271 764.767 114.092 802.742C160.049 840.717 220.541 859.705 295.565 859.705C378.053 859.705 442.276 843.111 488.234 809.922C534.191 776.415 557.17 722.643 557.17 648.607L558 490.5L493.766 491.207C452.297 491.207 415.954 512.114 389.5 541C388.374 542.229 389.203 541.478 388.117 542.746C365.392 569.301 350.593 602.334 350.593 640.949C350.593 659.777 346.862 676.094 339.399 687.902C332.328 699.709 318.955 707.613 301.279 707.613C285.567 707.613 270.39 700.826 261.749 691.252Z" fill="black"/>
<path fill-rule="evenodd" clip-rule="evenodd" d="M470.189 821.563C462.576 830.368 453.952 838.281 444.319 845.305C398.361 878.493 334.139 895.087 251.651 895.087C176.626 895.087 116.135 876.1 70.177 838.125C24.6122 800.15 1.82979 747.016 1.82979 678.725V290.038C1.82979 208.343 21.6662 145.796 61.339 102.396C72.9549 89.8129 87.6675 78.0542 103.477 69.1195C104.391 68.0733 105.317 67.0377 106.254 66.0129C106.614 65.6225 106.977 65.2339 107.341 64.8471C89.3753 74.3493 72.9307 87.0847 60.0222 101.068L60.016 101.074C19.9153 144.943 0 208.032 0 290.038V678.725C0 747.518 22.9795 801.235 69.0362 839.62L69.0422 839.625C115.404 877.934 176.331 897 251.651 897C334.342 897 398.982 880.37 445.359 846.878L445.366 846.874C456.605 838.679 466.481 829.291 474.995 818.716C473.412 819.682 471.81 820.631 470.189 821.563ZM389.5 541C388.239 541.61 386.741 542.101 385.5 542.746C337.149 567.909 305.849 616.041 304.849 676.331C304.849 686.94 302.648 699.356 300.274 707.606C300.608 707.611 300.942 707.613 301.279 707.613C301.582 707.613 301.883 707.611 302.183 707.608C304.513 699.278 306.679 686.853 306.679 676.331C307.679 618.521 338.608 570.261 384.114 544.644C385.352 543.947 386.857 543.407 388.117 542.746C389.2 541.463 388.377 542.244 389.5 541ZM253.194 190.5C253.052 191.094 252.915 191.694 252.783 192.3C253.403 192.282 254.024 191.307 254.66 191.303C254.894 191.301 254.425 191.303 254.66 191.303C270.866 191.303 285.163 196.686 292.547 205.084C296.174 209.062 299.033 217.117 300.954 225.389C302.873 233.648 303.849 244.016 303.849 256.53C303.849 306.78 344.821 345.516 392.896 345.516L556.5 347V345L450 344.301L392.896 343.604C345.832 343.604 305.679 305.724 305.679 256.53C305.679 231.32 301.751 212.406 293.895 203.79C286.039 194.855 271.608 189.387 255.11 189.387C255.026 189.387 255.195 189.387 255.11 189.387C254.472 189.389 253.819 190.485 253.194 190.5Z" fill="black"/>
</svg>
